<?xml version="1.0" standalone="no"?><!DOCTYPE svg PUBLIC "-//W3C//DTD SVG 1.1//EN" "http://www.w3.org/Graphics/SVG/1.1/DTD/svg11.dtd"><svg t="1525655400272" class="icon" style="" viewBox="0 0 1024 1024" version="1.1" xmlns="http://www.w3.org/2000/svg" p-id="1039" xmlns:xlink="http://www.w3.org/1999/xlink" width="200" height="200"><defs><style type="text/css"></style></defs><path d="M152.895 507.881c0-135.113 0.908-270.282-0.8-405.237-0.369-30.306 8.004-43.705 38.799-43.68 213.614 0.369 427.185 0.394 640.882 0 30.461 0 41.396 14.433 41.396 43.51-0.374 224.593-0.004 449.239-0.004 673.803 0 4.691-0.004 9.507-0.911 14.127-8.141 48.153-152.479 175.711-201.346 175.95-155.522 0.747-310.988-0.544-466.446 0.849-40.304 0.351-51.142-17.056-50.827-54.063 1.28-135.087 0.51-270.131 0.51-405.184h-1.173l-0.078-0.071zM194.479 509.481c0 117.788-0.004 235.619 0 353.417 0.004 60.035 3.303 63.046 64.768 63.261 92.655 0.324 185.365 0.703 278 0 143.918-1.103 124.153 17.179 125.718-124.94 0.699-68.871 1.251-69.6 67.892-64.647 15.582 1.103 31.543-0.011 47.038 1.103 40.464 3.595 55.75-13.633 55.415-54.576-1.431-175.906-1.623-351.845 0-527.712 0.447-44.093-16.881-57.078-58.554-56.688-174.349 1.427-348.657 1.524-523.015 0.004-42.486-0.374-58.675 14.005-57.986 57.323 1.969 117.857 0.654 235.683 0.578 353.418l0.146 0.038zM703.63 844.027c1.85 13.53-4.55 30.413 6.791 43.277 6.482 7.627 14.781 1.369 20.249-4.001 26.736-26.212 53.378-52.515 79.236-79.459 9.081-9.479 9.687-18.332-5.9-24.372-56.658-22.010-100.61 5.175-100.416 64.493l0.038 0.063zM703.63 844.027z" p-id="1040" fill="#8a8a8a"></path><path d="M512.020 702.384c-58.146 0-116.162 0.306-174.348-0.306-13.66-0.004-31.587 0.004-31.941-19.239-0.369-19.701 17.377-19.93 31.168-19.945 117.823-0.393 235.625-0.445 353.383 0 13.966 0 31.426 0.445 31.583 19.923 0.011 19.148-17.527 20.995-31.038 21.248-59.676 0.912-119.259-2.085-178.836-2.085v0.51l0.030-0.107zM512.020 702.384z" p-id="1041" fill="#8a8a8a"></path><path d="M509.396 362.973c-56.459 0-112.879 0.374-169.333-0.004-14.995-0.004-35.515 1.28-34.206-21.476 1.107-18.546 19.391-17.906 33.303-17.906 116.105-0.343 232.044-0.445 348.113 0 15.103 0.004 35.521-1.034 34.206 21.71-1.034 18.546-19.386 17.682-33.182 17.887-59.67 0.369-119.152 0.004-178.797 0.004l-0.107-0.214zM509.396 362.973z" p-id="1042" fill="#8a8a8a"></path><path d="M513.948 436.222c58.079 0.003 116.105-0.004 174.11 0.007 13.811 0 32.081-0.8 33.387 17.648 1.427 22.762-18.892 21.777-34.068 21.83-116.106 0.394-232.059 0.325-348.129 0-13.817 0-32.086 0.578-33.392-17.799-1.426-22.82 18.892-21.462 34.070-21.703 57.986-0.659 116.105-0.004 173.984-0.325l0.038 0.34zM513.948 436.222z" p-id="1043" fill="#8a8a8a"></path><path d="M466.58 589.113c-43.913 0-87.83 0.393-131.618-0.011-14.059-0.004-31.111-1.965-29.267-21.788 1.367-15.83 16.576-17.217 29.165-17.29 86.163-0.324 172.301-0.349 258.489 0.004 14.011 0 31.043 1.733 29.169 21.71-1.431 15.854-16.553 17.179-29.122 17.313-42.362 0.393-84.62 0.004-126.87 0.004l0.053 0.053zM466.58 589.113z" p-id="1044" fill="#8a8a8a"></path></svg>